<?xml version="1.0" standalone="no"?>
<!DOCTYPE svg PUBLIC "-//W3C//DTD SVG 20010904//EN"
 "http://www.w3.org/TR/2001/REC-SVG-20010904/DTD/svg10.dtd">
<svg version="1.0" xmlns="http://www.w3.org/2000/svg"
 width="745.000000pt" height="870.000000pt" viewBox="0 0 745.000000 870.000000"
 preserveAspectRatio="xMidYMid meet">
<metadata>
Created by potrace 1.16, written by Peter Selinger 2001-2019
</metadata>
<g transform="translate(0.000000,870.000000) scale(0.100000,-0.100000)"
fill="#000000" stroke="none">
<path d="M3310 8202 c-37 -37 -38 -50 -4 -58 31 -8 161 2 194 14 23 8 22 10
-24 37 -26 15 -67 30 -91 33 -39 4 -48 1 -75 -26z"/>
<path d="M4495 7918 c-92 -33 -220 -153 -275 -257 l-12 -24 83 7 c182 16 315
89 381 210 9 17 17 36 18 43 1 29 -132 43 -195 21z"/>
<path d="M3597 7854 c-42 -25 -77 -49 -77 -54 0 -12 84 -22 122 -15 53 10 88
47 88 94 0 35 -48 26 -133 -25z"/>
<path d="M5270 7781 c-95 -21 -237 -73 -323 -119 -31 -16 -62 -32 -69 -35 -7
-2 -10 -7 -7 -11 3 -3 26 2 50 13 79 34 540 101 696 101 49 0 63 3 63 15 0 45
-263 68 -410 36z"/>
<path d="M3623 7709 c-24 -6 -43 -16 -43 -23 0 -21 54 -90 96 -123 96 -75 232
-119 402 -130 75 -4 102 -3 102 6 0 19 -142 156 -200 193 -121 76 -248 103
-357 77z"/>
<path d="M2799 7680 c-34 -34 -32 -46 12 -55 34 -8 199 13 199 24 0 5 -22 20
-49 34 -68 38 -123 37 -162 -3z"/>
<path d="M2887 7573 c-10 -10 -8 -59 4 -108 14 -55 55 -95 106 -102 36 -5 39
-3 56 31 25 53 23 117 -5 143 -35 32 -142 56 -161 36z"/>
<path d="M1680 7553 c1 -22 113 -142 168 -179 75 -52 129 -68 201 -61 68 7 78
17 61 57 -31 74 -147 155 -258 179 -60 12 -172 15 -172 4z"/>
<path d="M3214 7510 c-52 -12 -103 -49 -129 -94 -39 -66 -35 -76 30 -76 42 0
56 -4 64 -18 10 -18 8 -18 -42 -5 -73 19 -86 17 -93 -13 -8 -30 11 -121 29
-144 22 -29 61 -50 93 -50 26 0 35 6 48 34 17 37 21 103 7 125 -6 9 -4 19 5
28 8 8 14 23 14 33 0 10 8 21 18 24 37 12 74 63 79 109 5 43 5 44 -27 51 -38
7 -54 7 -96 -4z"/>
<path d="M4840 7486 c-84 -18 -87 -23 -48 -63 79 -83 196 -163 261 -179 27 -6
27 -6 27 43 0 105 -47 180 -128 203 -43 12 -41 12 -112 -4z"/>
<path d="M2905 7341 c-68 -17 -109 -49 -139 -108 -29 -58 -24 -63 57 -63 39 0
88 5 108 10 52 14 90 59 96 113 5 40 3 45 -18 50 -29 8 -65 7 -104 -2z"/>
<path d="M3893 7292 c8 -98 45 -147 116 -154 30 -3 36 1 52 32 26 47 25 114
-1 140 -29 29 -63 40 -122 40 l-51 0 6 -58z"/>
<path d="M2478 7320 c-28 -8 -119 -59 -152 -85 -28 -21 -16 -27 63 -28 65 -1
73 1 101 28 22 21 30 38 30 62 0 35 -1 36 -42 23z"/>
<path d="M5993 7297 c-23 -7 -44 -15 -48 -18 -8 -9 64 -70 149 -126 74 -50
168 -92 204 -93 20 0 22 5 22 48 0 73 -43 150 -99 179 -50 26 -153 30 -228 10z"/>
<path d="M4185 7271 c-65 -29 -135 -124 -110 -149 13 -14 159 -6 197 11 46 19
78 69 78 120 l0 37 -62 0 c-39 0 -78 -7 -103 -19z"/>
<path d="M5265 7244 c-120 -21 -233 -79 -311 -159 -35 -36 -64 -72 -64 -81 0
-9 3 -14 8 -12 4 2 84 42 177 89 183 91 336 156 400 169 76 15 -124 9 -210 -6z"/>
<path d="M1470 7186 c0 -27 103 -120 170 -153 92 -45 177 -64 305 -69 l110 -4
-55 14 c-95 25 -335 128 -522 224 -5 2 -8 -3 -8 -12z"/>
<path d="M3414 7146 c-78 -24 -156 -93 -219 -190 l-19 -29 39 7 c58 11 135 48
179 86 37 33 76 96 76 125 0 18 -2 18 -56 1z"/>
<path d="M3875 7101 c-65 -29 -135 -124 -110 -149 3 -4 41 -7 84 -6 124 1 191
50 191 142 l0 32 -62 0 c-39 0 -78 -7 -103 -19z"/>
<path d="M4053 7084 c-3 -8 -3 -35 1 -60 11 -86 53 -135 118 -138 28 -1 35 4
50 34 26 51 24 111 -5 138 -43 40 -152 57 -164 26z"/>
<path d="M1654 6911 c-38 -23 -64 -78 -43 -92 18 -12 46 -11 91 1 43 12 68 42
68 82 0 26 -3 28 -42 28 -24 0 -56 -8 -74 -19z"/>
<path d="M2983 6883 c-46 -25 -83 -49 -83 -53 0 -11 39 -20 88 -20 75 0 122
39 122 101 0 31 -38 23 -127 -28z"/>
<path d="M4720 6813 c0 -23 7 -45 20 -58 l20 -22 -40 -12 c-37 -11 -80 -56
-80 -83 0 -5 24 -8 54 -8 38 0 60 6 79 20 31 25 37 25 37 2 0 -26 31 -52 62
-52 28 0 38 16 38 61 0 24 -6 33 -32 44 l-33 14 38 1 c45 0 87 36 87 75 0 21
-5 25 -30 25 -40 0 -95 -23 -109 -47 -11 -17 -11 -17 -10 2 1 11 1 27 0 36 -1
18 -41 39 -76 39 -22 0 -25 -4 -25 -37z"/>
<path d="M6313 6810 c-54 -24 -133 -78 -133 -90 0 -6 33 -10 74 -10 89 0 123
21 133 83 5 32 3 37 -13 37 -11 0 -38 -9 -61 -20z"/>
<path d="M1808 6775 c-32 -18 -52 -50 -42 -67 8 -13 193 -5 220 10 14 8 10 13
-30 37 -57 33 -111 41 -148 20z"/>
<path d="M5500 6699 c-56 -25 -140 -78 -140 -89 0 -13 96 -19 134 -9 43 12 76
51 76 90 0 34 -10 35 -70 8z"/>
<path d="M4205 6604 c-11 -2 -44 -9 -72 -16 -29 -6 -53 -14 -53 -17 0 -11 116
-100 191 -146 68 -42 151 -75 187 -75 12 0 13 10 8 52 -12 91 -48 153 -108
184 -28 15 -120 26 -153 18z"/>
<path d="M2437 6536 c7 -80 -9 -148 -58 -256 -22 -46 -37 -90 -35 -97 11 -27
38 -11 73 45 47 71 72 143 73 203 0 54 -24 142 -44 158 -12 10 -13 1 -9 -53z"/>
<path d="M3961 6529 c-22 -48 -27 -109 -11 -140 6 -10 25 -26 42 -35 33 -17
48 -9 48 27 0 26 -40 173 -50 183 -6 6 -17 -7 -29 -35z"/>
<path d="M2653 6489 c7 -52 33 -82 68 -77 14 2 31 -1 37 -8 9 -10 0 -11 -41
-7 -62 6 -105 -11 -127 -52 -12 -23 -12 -28 0 -36 26 -17 103 0 128 27 21 24
22 24 22 4 0 -26 43 -70 68 -70 28 0 48 53 34 85 -7 14 -16 25 -22 25 -6 0 -8
5 -5 10 3 6 16 10 29 10 27 0 52 25 61 63 7 27 6 27 -40 27 -31 0 -56 -7 -75
-20 l-28 -20 -5 30 c-5 23 -14 31 -44 39 -63 18 -66 16 -60 -30z"/>
<path d="M4971 6443 c-17 -44 -30 -114 -31 -161 l0 -42 24 15 c66 43 95 137
60 190 -21 33 -39 32 -53 -2z"/>
<path d="M2127 6440 c-54 -27 -127 -74 -127 -82 0 -11 87 -21 126 -13 47 8 84
45 84 85 0 25 -4 30 -22 30 -13 -1 -40 -9 -61 -20z"/>
<path d="M5413 6309 c-40 -61 -40 -131 1 -165 15 -14 33 -23 40 -21 14 5 13
204 -2 219 -7 7 -19 -3 -39 -33z"/>
<path d="M3595 6303 c-43 -9 -105 -35 -105 -44 0 -5 9 -27 20 -48 39 -77 122
-125 248 -142 83 -12 122 -6 122 17 0 27 -51 118 -88 157 -49 50 -129 75 -197
60z"/>
<path d="M4730 6290 c-70 -13 -160 -79 -222 -164 -37 -52 -36 -60 10 -51 57
11 135 51 175 91 33 33 85 121 76 128 -2 1 -20 -1 -39 -4z"/>
<path d="M5990 6264 c0 -44 90 -197 106 -181 4 4 8 39 8 78 1 67 0 72 -32 100
-42 38 -82 39 -82 3z"/>
<path d="M2057 6179 c-62 -15 -118 -48 -179 -107 -57 -54 -58 -54 -58 -27 l0
27 -78 -3 c-91 -5 -133 -27 -176 -93 -44 -68 -39 -76 53 -76 44 0 91 4 105 10
17 6 26 6 26 0 0 -15 119 -12 183 5 115 30 206 91 259 174 33 52 35 67 11 80
-29 15 -105 20 -146 10z"/>
<path d="M2920 6167 c-41 -20 -63 -78 -55 -143 3 -29 10 -54 15 -54 21 0 110
154 110 190 0 23 -31 27 -70 7z"/>
<path d="M4990 6162 c0 -5 25 -36 56 -70 62 -69 119 -107 177 -117 32 -6 37
-5 37 12 0 30 -58 101 -106 129 -24 14 -67 32 -96 40 -62 16 -68 17 -68 6z"/>
<path d="M2526 6135 c-54 -50 -22 -72 92 -61 81 8 112 16 112 26 0 5 -23 20
-52 34 -67 33 -117 34 -152 1z"/>
<path d="M1364 6126 c-3 -9 -3 -41 1 -72 9 -73 51 -123 110 -131 38 -5 41 -3
58 31 19 41 22 98 7 127 -15 26 -58 47 -118 55 -43 5 -53 4 -58 -10z"/>
<path d="M3163 6100 c-41 -24 -71 -79 -51 -91 18 -12 55 -11 101 2 30 8 42 18
53 44 23 56 19 65 -28 65 -25 0 -57 -8 -75 -20z"/>
<path d="M3475 6033 c-12 -32 -17 -187 -6 -203 9 -13 14 -13 38 2 55 32 60
113 11 183 -26 40 -33 42 -43 18z"/>
<path d="M2434 5950 c-68 -16 -70 -18 -43 -46 66 -70 279 -193 337 -194 19 0
22 5 22 44 0 86 -39 158 -104 187 -43 19 -150 24 -212 9z"/>
<path d="M3972 5930 c-18 -4 -36 -10 -39 -13 -10 -11 45 -92 83 -123 95 -74
177 -107 324 -129 119 -19 190 -19 190 -2 0 24 -174 182 -239 216 -106 56
-221 74 -319 51z"/>
<path d="M1331 5878 c-45 -22 -101 -94 -101 -130 0 -16 10 -18 82 -18 132 0
198 47 198 139 l0 31 -67 0 c-50 0 -80 -6 -112 -22z"/>
<path d="M1525 5860 c-7 -34 2 -95 22 -132 16 -33 61 -58 103 -58 26 0 33 6
46 35 18 45 18 105 -1 132 -16 23 -56 39 -122 46 -39 5 -42 3 -48 -23z"/>
<path d="M918 5862 c-53 -28 -128 -76 -128 -84 0 -13 98 -19 138 -8 47 12 72
41 72 82 0 34 -27 37 -82 10z"/>
<path d="M2860 5817 c0 -56 20 -96 48 -98 9 -1 -1 -5 -22 -10 -48 -11 -74 -33
-93 -78 -12 -28 -12 -35 -1 -42 32 -21 117 3 137 38 9 16 11 14 17 -15 6 -32
45 -72 69 -72 16 0 35 44 35 80 0 40 -32 70 -74 70 -35 0 -55 13 -36 25 5 3
10 1 10 -4 0 -6 22 -11 51 -11 43 0 55 5 80 29 19 20 29 40 29 60 0 30 -1 31
-46 31 -39 0 -51 -5 -75 -31 l-29 -31 0 34 c0 41 -21 63 -67 71 l-33 7 0 -53z"/>
<path d="M4750 5831 c0 -52 22 -75 81 -86 24 -4 36 -10 27 -12 -23 -6 -25 -75
-3 -97 26 -26 57 -30 72 -10 23 31 14 94 -14 94 -8 0 -11 5 -8 10 3 6 17 10
31 10 31 0 64 33 64 65 0 23 -4 25 -44 25 -33 0 -52 -7 -74 -25 -25 -21 -29
-22 -25 -7 7 27 -27 60 -69 68 l-38 6 0 -41z"/>
<path d="M4661 5811 c-48 -67 -57 -167 -22 -242 32 -67 108 -159 131 -159 34
0 34 26 0 75 -26 38 -80 145 -80 159 0 2 8 2 19 -1 29 -7 100 16 111 37 5 10
10 28 10 39 0 18 -6 21 -44 21 -34 0 -52 -7 -77 -27 l-32 -27 5 77 c3 42 4 77
2 77 -1 0 -12 -13 -23 -29z"/>
<path d="M5513 5797 c-78 -29 -188 -130 -254 -235 l-21 -32 69 0 c173 0 327
83 394 212 10 21 19 39 19 42 0 2 -14 9 -31 15 -41 14 -135 13 -176 -2z"/>
<path d="M1107 5733 c7 -82 -11 -161 -62 -270 -35 -75 -37 -93 -9 -93 19 0 89
108 110 172 21 64 15 158 -15 216 -12 23 -23 42 -26 42 -2 0 -1 -30 2 -67z"/>
<path d="M3327 5721 c10 -38 89 -116 147 -144 65 -32 167 -60 199 -54 19 3 14
11 -48 73 -80 78 -176 131 -254 141 -47 5 -50 5 -44 -16z"/>
<path d="M2135 5701 c-56 -14 -110 -49 -166 -107 -56 -59 -85 -101 -76 -111
10 -9 122 28 162 54 59 38 101 91 119 151 8 24 7 24 -39 13z"/>
<path d="M5122 5668 c17 -77 -7 -190 -66 -307 -15 -29 -25 -59 -22 -67 15 -40
61 9 113 121 36 77 38 175 5 248 -26 60 -43 62 -30 5z"/>
<path d="M3722 5690 c106 -17 623 -200 695 -246 28 -18 33 -18 33 0 0 34 -120
129 -218 173 -117 52 -234 74 -407 78 -120 3 -146 2 -103 -5z"/>
<path d="M1755 5659 c-124 -8 -223 -37 -312 -91 -64 -38 -153 -131 -153 -159
0 -17 5 -16 49 11 135 83 477 230 535 230 22 0 35 4 31 10 -3 6 -14 9 -23 9
-9 -1 -66 -5 -127 -10z"/>
<path d="M5920 5616 c0 -30 -4 -34 -31 -40 -17 -3 -61 -6 -98 -6 -161 -1 -326
-66 -424 -169 -34 -36 -57 -68 -57 -82 0 -20 1 -21 18 -6 23 21 316 164 422
206 47 19 103 36 125 38 39 5 41 4 53 -31 14 -39 39 -60 85 -70 25 -6 29 -3
42 28 19 45 19 96 0 123 -8 11 -34 26 -59 32 -70 17 -76 15 -76 -23z"/>
<path d="M6154 5576 c-36 -16 -79 -69 -90 -110 l-7 -28 87 3 c84 4 89 5 117
37 22 24 29 42 29 72 l0 40 -52 0 c-29 -1 -67 -7 -84 -14z"/>
<path d="M2786 5489 c33 -58 146 -164 204 -191 73 -34 117 -41 179 -27 54 11
58 17 40 52 -58 109 -188 179 -361 193 l-81 7 19 -34z"/>
<path d="M5895 5424 c-35 -18 -60 -46 -80 -93 -8 -18 -15 -35 -15 -37 0 -12
146 -2 175 12 36 17 65 65 65 108 0 25 -2 26 -57 26 -33 0 -71 -7 -88 -16z"/>
<path d="M6050 5380 c0 -72 22 -118 64 -135 20 -8 40 -15 45 -15 18 0 41 58
41 103 0 53 -17 72 -80 86 -70 16 -70 16 -70 -39z"/>
<path d="M4052 5342 c5 -71 24 -118 60 -152 27 -25 101 -27 154 -5 l36 15 -30
37 c-37 46 -128 134 -162 157 -13 9 -33 16 -44 16 -17 0 -18 -6 -14 -68z"/>
<path d="M2127 5386 c-64 -23 -69 -32 -47 -76 24 -47 70 -86 140 -119 43 -19
76 -26 148 -29 68 -3 92 -1 92 8 0 30 -63 141 -99 173 -61 55 -152 72 -234 43z"/>
<path d="M765 5323 c-48 -10 -77 -28 -90 -54 -35 -66 -5 -89 90 -69 42 9 61
19 89 51 20 21 36 45 36 53 0 21 -70 31 -125 19z"/>
<path d="M3405 5308 c28 -92 109 -187 192 -225 68 -32 179 -36 263 -10 81 25
85 29 67 63 -61 117 -239 194 -449 194 -78 0 -79 0 -73 -22z"/>
<path d="M1495 5289 c-4 -6 7 -36 23 -67 45 -85 65 -164 60 -238 -2 -35 -1
-64 3 -64 4 0 17 23 29 52 39 90 11 219 -66 302 -27 28 -39 32 -49 15z"/>
<path d="M1811 5268 c20 -38 121 -133 162 -152 21 -9 54 -20 72 -23 35 -6 35
-6 25 24 -26 74 -133 151 -233 168 -38 6 -38 6 -26 -17z"/>
<path d="M6220 5270 c0 -22 97 -113 155 -146 34 -19 96 -43 137 -53 89 -23
288 -39 288 -23 0 5 -15 10 -33 10 -43 0 -212 66 -396 153 -79 38 -146 69
-148 69 -1 0 -3 -5 -3 -10z"/>
<path d="M4775 5231 c-65 -16 -95 -45 -95 -94 0 -18 7 -27 26 -31 30 -8 89 2
126 20 28 14 78 73 78 91 0 20 -77 28 -135 14z"/>
<path d="M5750 5220 c-30 -5 -68 -14 -84 -20 l-29 -11 34 -29 c101 -88 280
-189 337 -190 18 0 22 5 22 33 0 54 -28 132 -57 162 -51 51 -127 69 -223 55z"/>
<path d="M2370 5101 c0 -31 6 -44 26 -60 26 -20 26 -21 5 -21 -35 0 -79 -28
-96 -60 -8 -16 -15 -32 -15 -36 0 -14 120 2 138 19 24 22 32 21 32 -1 0 -25
31 -52 58 -52 45 0 57 85 14 106 -22 11 -21 12 17 18 43 7 71 35 71 73 0 20
-5 23 -39 23 -24 0 -51 -9 -75 -25 l-36 -24 0 29 c0 34 -23 50 -69 50 -29 0
-31 -2 -31 -39z"/>
<path d="M1312 5114 c-13 -9 -22 -26 -22 -40 l0 -26 -31 26 c-20 17 -43 26
-65 26 -31 0 -34 -3 -34 -29 0 -37 40 -71 84 -72 30 0 31 0 6 -10 -29 -12 -40
-26 -40 -55 0 -62 68 -72 89 -12 7 20 15 28 19 22 21 -33 132 -49 132 -20 0
24 -49 74 -80 81 -28 6 -28 7 -9 26 12 12 19 33 19 59 0 35 -3 40 -23 40 -12
0 -33 -7 -45 -16z"/>
<path d="M270 5086 c0 -41 98 -137 173 -171 61 -26 154 -49 182 -43 34 6 -101
130 -188 173 -66 32 -167 57 -167 41z"/>
<path d="M3110 5046 c0 -43 16 -87 37 -103 14 -11 13 -14 -15 -19 -39 -8 -92
-65 -92 -99 0 -22 4 -25 40 -25 46 0 95 21 104 45 10 28 7 73 -6 78 -8 4 -7 6
4 6 9 1 18 4 21 9 2 4 2 1 1 -5 -2 -9 13 -13 52 -13 69 0 104 29 104 85 0 34
-1 35 -36 35 -46 0 -71 -14 -94 -53 l-19 -31 6 37 c8 49 -24 87 -74 87 -31 0
-33 -2 -33 -34z"/>
<path d="M1690 5050 c0 -27 99 -114 171 -150 80 -41 219 -70 329 -69 l85 1
-55 12 c-72 16 -265 94 -412 166 -97 48 -118 55 -118 40z"/>
<path d="M2735 5049 c98 -120 189 -180 258 -170 12 2 -29 74 -59 105 -39 39
-115 75 -172 83 l-47 6 20 -24z"/>
<path d="M693 5009 c-18 -5 -33 -13 -33 -18 0 -15 56 -85 94 -119 81 -71 214
-117 380 -132 61 -5 114 -10 119 -10 39 0 -88 139 -188 205 -90 59 -171 85
-263 84 -42 0 -92 -5 -109 -10z"/>
<path d="M4220 4983 c0 -49 23 -83 58 -84 15 0 36 -4 47 -9 12 -5 -6 -6 -47
-3 -67 6 -68 5 -103 -30 -19 -19 -35 -40 -35 -45 0 -32 130 -18 149 15 8 14
12 11 24 -20 29 -68 97 -58 97 14 0 17 -8 34 -21 43 -21 14 -20 15 20 26 42
11 61 33 61 69 0 33 -78 30 -119 -5 l-31 -26 0 30 c0 36 -13 48 -62 57 l-38 7
0 -39z"/>
<path d="M5148 5004 c-27 -8 -48 -18 -48 -22 0 -14 179 -140 242 -171 35 -18
81 -34 102 -38 l39 -6 -5 59 c-6 77 -32 130 -81 162 -34 23 -53 27 -121 29
-51 2 -99 -3 -128 -13z"/>
<path d="M5700 4968 c0 -21 72 -92 131 -131 95 -62 235 -98 379 -96 67 1 70 2
34 9 -74 15 -344 129 -536 228 -5 2 -8 -2 -8 -10z"/>
<path d="M2210 4940 c0 -21 95 -112 150 -143 85 -48 174 -69 310 -73 89 -2
112 -1 79 5 -63 12 -280 99 -422 169 -88 43 -117 54 -117 42z"/>
<path d="M3815 4938 c30 -135 60 -529 50 -658 -8 -105 -44 -363 -52 -370 -3
-3 -3 91 -1 208 3 116 2 212 -1 212 -9 0 -39 -72 -47 -114 -9 -50 -23 -28 -25
39 0 28 -4 70 -7 95 -7 42 -9 45 -37 45 -29 0 -31 -3 -43 -60 -8 -33 -16 -67
-19 -75 -7 -21 -29 42 -49 148 -18 95 -27 112 -55 112 -32 0 -39 -34 -39 -194
0 -176 -18 -227 -22 -64 l-3 103 -27 3 c-18 2 -30 -3 -36 -15 -17 -32 -35
-233 -36 -405 0 -93 -4 -168 -7 -168 -6 0 -22 69 -40 175 -7 40 -13 181 -14
330 l-1 260 -46 90 c-27 55 -54 95 -69 102 -13 7 -25 10 -27 8 -2 -1 6 -22 18
-45 27 -53 36 -142 50 -500 6 -151 17 -319 23 -372 7 -54 10 -98 6 -98 -24 0
-139 322 -139 391 0 11 -7 19 -15 19 -10 0 -15 -10 -15 -32 0 -34 15 -149 26
-203 4 -19 -7 -5 -31 40 -68 128 -103 159 -136 119 -11 -14 -10 -22 10 -58
106 -186 222 -436 221 -474 0 -4 -15 17 -32 47 -80 137 -205 230 -338 252
-128 21 -191 -4 -234 -94 -14 -29 -35 -58 -47 -65 -21 -13 -21 -14 10 -44 17
-17 31 -34 31 -39 0 -5 5 -9 10 -9 6 0 10 16 10 35 0 22 5 35 13 35 7 0 28 16
47 35 44 45 106 69 165 63 105 -12 261 -131 282 -215 14 -55 6 -65 -40 -51
-39 12 -67 0 -67 -28 0 -8 42 -55 93 -106 101 -102 146 -169 183 -278 63 -181
31 -433 -76 -599 -53 -83 -120 -146 -194 -184 l-61 -31 -300 -7 c-518 -13
-660 -29 -1020 -113 -166 -38 -230 -57 -230 -67 0 -16 -6 -16 180 2 72 7 143
9 159 5 l28 -7 -41 -36 c-80 -68 -27 -113 62 -53 55 37 132 72 207 93 61 18
231 49 237 44 2 -2 -48 -53 -110 -114 -108 -106 -129 -120 -208 -137 -40 -9
-79 -44 -79 -72 0 -35 23 -39 89 -19 31 9 67 15 80 13 l23 -3 -30 -41 c-43
-60 -113 -90 -237 -104 -150 -17 -228 -58 -241 -127 -4 -19 -4 -36 -1 -39 3
-3 27 11 54 32 26 20 66 45 88 55 38 18 125 26 137 13 4 -3 -33 -45 -81 -92
-111 -112 -152 -190 -159 -304 -2 -42 -1 -94 3 -115 7 -37 8 -36 30 53 34 135
90 237 151 275 45 28 54 25 43 -13 -13 -46 -11 -168 3 -209 12 -37 67 -119 79
-119 4 0 1 21 -7 47 -18 60 -18 190 1 262 21 80 53 151 70 151 22 0 71 47 112
108 l38 57 -2 -105 c-1 -58 -5 -112 -8 -121 -4 -10 -2 -20 4 -24 16 -9 14 -40
-14 -182 -30 -148 -52 -190 -114 -216 -22 -9 -59 -24 -81 -34 -26 -10 -40 -22
-40 -34 0 -17 7 -18 73 -13 65 6 74 4 92 -15 18 -21 21 -47 12 -116 -5 -40 27
-20 46 29 29 78 103 324 132 434 26 102 26 102 9 172 -13 54 -16 96 -11 178 5
113 34 265 48 256 12 -7 49 -131 57 -190 8 -53 31 -76 60 -58 22 14 26 72 12
183 -6 47 -14 105 -17 129 -6 42 19 122 38 122 13 0 31 -40 48 -104 30 -113
76 -99 93 30 14 103 32 124 103 124 28 0 54 -3 58 -6 3 -3 -5 -23 -18 -43 -82
-130 -165 -338 -184 -458 -13 -85 -15 -181 -3 -168 5 6 23 56 41 112 68 221
163 398 237 444 42 26 50 20 60 -50 15 -98 -1 -220 -45 -346 -48 -140 -50
-147 -34 -152 6 -2 30 33 53 79 44 88 60 112 60 87 0 -33 -104 -220 -164 -295
-108 -134 -245 -234 -302 -220 -45 12 -59 58 -61 206 -1 104 -5 135 -15 135
-28 0 -49 -262 -27 -355 22 -94 91 -118 181 -61 l46 29 -43 -61 c-105 -152
-150 -283 -150 -442 0 -127 9 -185 30 -185 16 0 21 16 30 104 16 142 77 305
134 360 l31 30 -25 -63 c-47 -114 -58 -198 -52 -376 6 -169 10 -195 33 -195
12 0 13 12 7 68 -4 37 -7 74 -7 82 1 8 38 130 83 270 57 177 105 302 155 410
41 85 93 206 116 268 24 62 45 111 47 109 7 -7 -27 -235 -57 -382 -17 -83 -33
-183 -37 -222 -3 -40 -9 -73 -13 -73 -4 0 -14 21 -21 46 -12 41 -32 64 -44 52
-4 -4 51 -331 60 -356 2 -6 11 -12 20 -12 11 0 15 12 15 48 l1 47 51 -103 c39
-78 56 -102 71 -102 22 0 22 -14 -8 160 -36 199 9 553 85 675 22 35 23 34 45
-90 9 -49 27 -127 40 -172 13 -46 27 -114 31 -152 5 -52 -8 -453 -20 -598 0
-10 6 -19 14 -20 12 -3 18 14 28 74 34 202 43 279 49 422 7 172 8 172 59 31
35 -96 39 -100 86 -100 36 0 40 3 58 42 10 22 33 85 52 140 18 54 36 98 39 98
16 0 34 -201 34 -387 0 -174 2 -203 15 -203 11 0 20 26 33 103 36 212 67 435
83 611 10 99 20 184 24 188 3 4 16 -99 29 -230 12 -130 34 -327 47 -437 13
-110 24 -228 24 -262 0 -34 5 -65 10 -68 12 -8 19 8 30 71 4 27 8 41 9 32 0
-10 8 -18 16 -18 13 0 15 27 15 183 1 196 11 336 30 407 12 43 13 44 22 20 43
-111 60 -365 36 -524 -11 -71 -10 -80 5 -91 9 -7 17 -20 17 -31 0 -44 44 -194
57 -194 10 0 13 36 13 177 l0 178 25 -38 c38 -54 46 -45 23 26 -18 56 -19 70
-8 141 11 77 63 252 80 270 4 4 11 -27 15 -70 8 -86 46 -283 64 -326 6 -16 18
-28 27 -28 15 0 16 9 10 73 -32 356 -9 620 81 896 40 122 48 140 56 120 15
-39 1 -187 -28 -304 l-28 -109 38 -296 c21 -162 42 -305 47 -318 6 -18 14 -23
36 -20 26 3 27 5 30 77 2 40 -6 138 -18 217 -11 80 -20 165 -20 190 0 59 27
190 48 231 l17 32 48 -107 c26 -60 47 -116 47 -125 0 -10 18 -37 40 -61 56
-60 71 -110 77 -251 4 -111 -11 -279 -32 -341 -6 -18 -2 -22 30 -27 22 -4 45
-1 57 6 19 11 20 19 14 117 -23 377 -24 392 -44 414 -25 27 -45 66 -38 73 11
11 76 -48 100 -90 13 -23 30 -67 37 -97 15 -61 18 -202 6 -267 -10 -58 3 -54
34 9 l26 52 13 -82 c7 -45 16 -84 20 -87 10 -6 20 83 20 180 0 93 -27 216 -69
314 -16 37 -32 82 -36 100 -4 18 -13 35 -20 37 -7 3 -34 38 -60 77 l-46 72 79
-81 c132 -134 181 -225 183 -338 l1 -51 13 30 c26 57 19 114 -29 211 -51 107
-106 177 -230 299 -50 50 -113 120 -139 156 -45 64 -128 226 -141 279 -12 46
19 -4 51 -81 15 -38 34 -69 41 -69 17 0 15 18 -9 86 -52 152 -76 306 -60 403
14 87 23 93 66 46 69 -76 159 -300 264 -655 l19 -65 1 76 c2 147 -59 371 -174
636 -30 70 -55 131 -55 135 0 4 20 8 45 8 63 0 81 -21 90 -105 4 -38 9 -74 12
-81 12 -32 73 -20 73 14 0 28 19 87 34 107 14 19 15 18 32 -20 17 -41 17 -48
-10 -300 -4 -38 9 -65 33 -65 24 0 37 17 46 60 15 79 38 151 46 143 20 -20 41
-200 36 -313 -5 -138 -9 -151 -45 -144 -16 3 -35 -1 -47 -10 -33 -24 -26 -138
15 -251 56 -155 160 -345 197 -359 9 -4 23 0 31 8 13 13 13 21 -2 67 -10 29
-42 102 -72 163 l-55 111 63 -65 c72 -74 100 -140 119 -279 6 -42 13 -91 15
-108 5 -35 34 -47 34 -15 0 26 -19 201 -26 245 l-6 39 57 -47 c71 -57 121 -83
135 -69 7 7 -9 31 -50 75 -76 80 -170 216 -215 312 -45 94 -61 185 -57 320 l4
107 39 -60 c21 -33 55 -70 74 -81 28 -17 38 -32 50 -73 26 -88 23 -119 -18
-181 -39 -57 -36 -65 13 -40 20 10 34 31 49 70 12 31 21 60 21 65 0 6 4 10 10
10 5 0 19 -32 30 -71 22 -72 39 -85 63 -48 13 21 -21 131 -73 235 -35 70 -37
75 -20 84 36 19 49 11 61 -35 6 -25 17 -45 23 -45 15 0 48 93 40 113 -7 20
-43 32 -127 45 -83 13 -133 43 -165 101 l-23 41 23 0 c13 0 44 -7 70 -17 39
-14 49 -14 62 -4 39 33 -2 83 -83 103 -38 9 -60 26 -134 102 -48 50 -97 103
-108 118 l-20 27 38 -5 c113 -16 235 -57 313 -106 71 -44 88 -51 104 -45 24
10 19 48 -10 78 l-27 28 29 7 c27 7 222 -10 273 -23 19 -5 22 -2 19 13 -2 15
-41 28 -202 71 -316 83 -446 99 -876 109 -174 4 -269 10 -298 19 -135 43 -253
209 -298 419 -20 91 -22 265 -5 335 41 163 136 312 263 413 37 29 39 29 64 13
14 -9 30 -27 36 -40 14 -31 28 -23 28 16 0 29 -30 69 -52 69 -6 0 -8 3 -5 6 3
4 2 15 -4 25 -12 24 -59 25 -143 3 -76 -19 -134 -52 -176 -101 l-33 -37 -18
23 c-26 32 -24 85 6 149 36 77 69 121 214 286 72 82 131 157 131 167 0 34 -35
42 -82 18 -80 -40 -151 -90 -199 -140 l-47 -49 -8 88 c-8 105 10 363 32 446
15 57 14 86 -5 86 -16 0 -117 -434 -141 -610 -22 -154 -33 -118 -27 90 4 160
12 234 41 410 20 118 46 245 57 282 18 56 19 71 9 83 -21 26 -53 13 -77 -30
-25 -45 -26 -44 -42 70 -7 52 -22 102 -43 143 -31 62 -53 82 -43 40z m-475
-3022 c19 -112 9 -221 -24 -289 -52 -106 -96 -325 -86 -422 7 -56 5 -59 37 69
20 83 51 162 69 177 12 10 19 8 39 -11 56 -53 58 -223 5 -539 -17 -102 -33
-187 -35 -190 -3 -2 -5 13 -5 35 0 86 -29 233 -54 272 -47 75 -108 206 -144
310 -34 100 -36 115 -37 227 l0 120 52 114 c29 63 74 150 100 193 l47 79 12
-35 c7 -18 18 -68 24 -110z m786 10 c73 -152 114 -279 114 -352 0 -135 -47
-304 -136 -493 -48 -101 -56 -127 -69 -228 -8 -63 -15 -157 -15 -209 0 -56 -4
-94 -10 -94 -6 0 -10 56 -10 148 0 88 -8 207 -20 297 -22 166 -26 329 -9 390
11 39 35 75 50 75 4 0 23 -52 43 -115 25 -78 41 -115 51 -115 8 0 15 6 15 13
0 26 -39 166 -55 196 -25 50 -95 321 -95 371 0 28 13 77 35 130 19 47 35 91
35 98 0 30 26 -7 76 -112z"/>
<path d="M4580 4801 c0 -5 23 -34 51 -65 33 -37 64 -60 89 -67 39 -12 105 -5
115 11 9 15 -63 87 -109 109 -43 22 -146 29 -146 12z"/>
<path d="M4904 4786 c-3 -8 6 -34 19 -58 46 -78 69 -166 65 -240 -2 -38 -1
-68 3 -68 4 0 17 23 29 52 39 90 14 207 -63 294 -32 37 -45 42 -53 20z"/>
<path d="M5160 4763 c0 -21 77 -99 131 -134 86 -55 187 -81 329 -85 89 -2 112
-1 79 5 -63 12 -280 99 -422 169 -73 36 -117 53 -117 45z"/>
<path d="M1683 4719 c-40 -61 -45 -157 -11 -231 27 -58 112 -158 134 -158 9 0
14 -11 14 -30 0 -76 55 -140 120 -140 35 0 39 3 54 40 20 51 20 89 0 119 -20
28 -72 51 -116 51 -50 0 -71 21 -119 117 -42 85 -44 91 -44 181 0 50 -1 92 -2
92 -2 0 -15 -19 -30 -41z"/>
<path d="M1990 4722 c-58 -22 -61 -44 -15 -104 54 -72 139 -109 260 -116 110
-6 109 -7 66 83 -64 135 -182 186 -311 137z"/>
<path d="M5720 4690 c0 -7 33 -45 73 -85 59 -59 83 -76 129 -91 32 -9 61 -14
65 -10 12 12 -37 94 -73 121 -65 49 -194 93 -194 65z"/>
<path d="M6985 4678 c-22 -11 -62 -34 -88 -51 -58 -36 -49 -47 40 -47 54 0 67
4 93 28 16 15 33 42 36 60 6 29 4 32 -17 32 -13 -1 -42 -10 -64 -22z"/>
<path d="M700 4621 c0 -5 26 -11 58 -14 87 -8 448 -131 638 -217 76 -34 84
-36 84 -16 0 25 -107 111 -186 150 -93 46 -242 85 -344 91 -208 12 -250 13
-250 6z"/>
<path d="M6140 4617 c0 -46 79 -94 178 -106 168 -21 55 64 -150 113 -20 4 -28
2 -28 -7z"/>
<path d="M2418 4564 c-27 -8 -48 -18 -48 -22 0 -4 42 -38 93 -76 98 -74 192
-123 251 -133 l36 -6 0 50 c0 74 -42 151 -99 180 -53 27 -157 30 -233 7z"/>
<path d="M5100 4574 c0 -15 75 -106 119 -146 92 -82 208 -117 295 -88 l36 11
-19 38 c-24 45 -95 112 -150 140 -22 12 -69 28 -103 36 -63 15 -178 20 -178 9z"/>
<path d="M4275 4560 c-9 -15 14 -88 31 -98 13 -7 10 -10 -16 -15 -35 -7 -90
-57 -90 -81 0 -13 12 -16 55 -16 46 0 60 4 80 24 l24 24 7 -21 c17 -58 75 -77
95 -33 17 37 4 74 -29 83 -25 6 -24 8 18 15 50 8 80 36 80 74 0 21 -5 24 -39
24 -24 0 -51 -9 -75 -25 l-36 -24 0 24 c0 13 -10 31 -22 39 -25 18 -74 21 -83
6z"/>
<path d="M5590 4414 c0 -3 9 -18 20 -34 25 -35 98 -67 178 -76 57 -6 62 -5 62
13 0 26 -56 56 -150 82 -76 21 -110 26 -110 15z"/>
<path d="M4683 4351 c-47 -22 -51 -34 -26 -71 67 -102 191 -157 329 -148 l50
3 -7 30 c-15 54 -73 139 -117 169 -37 26 -54 31 -115 34 -55 2 -82 -2 -114
-17z"/>
<path d="M1046 4351 c-11 -17 11 -119 36 -162 62 -111 244 -146 453 -88 l39
11 -28 22 c-69 52 -258 159 -329 186 -89 35 -161 48 -171 31z"/>
<path d="M2100 4287 c-44 -23 -92 -80 -104 -123 -6 -19 -1 -22 43 -28 111 -15
200 21 227 90 26 69 19 79 -56 82 -53 2 -74 -2 -110 -21z"/>
<path d="M5400 4240 c0 -61 24 -124 54 -144 13 -8 40 -18 60 -21 36 -7 36 -7
57 40 23 53 21 105 -6 135 -19 21 -80 40 -129 40 l-36 0 0 -50z"/>
<path d="M440 4225 c40 -104 102 -177 185 -217 49 -23 73 -28 136 -28 78 0
174 22 198 45 12 11 10 19 -8 48 -69 112 -225 176 -428 177 l-93 0 10 -25z"/>
<path d="M6040 4238 c0 -10 55 -78 107 -131 75 -76 157 -117 234 -117 60 0
109 13 109 29 0 5 -15 31 -32 57 -39 58 -119 114 -197 139 -51 16 -221 34
-221 23z"/>
<path d="M5706 4215 c-47 -17 -91 -57 -118 -109 -26 -51 -15 -58 87 -53 116 5
163 35 178 114 4 22 2 37 -9 48 -19 19 -85 19 -138 0z"/>
<path d="M1790 4117 c-44 -23 -92 -80 -104 -123 -6 -19 -2 -22 46 -26 140 -15
225 33 231 128 l2 39 -65 3 c-53 2 -74 -2 -110 -21z"/>
<path d="M1980 4068 c0 -88 43 -148 118 -163 31 -6 33 -4 52 37 49 108 -3 178
-132 178 l-38 0 0 -52z"/>
<path d="M4450 4082 c0 -21 109 -129 157 -154 63 -34 113 -45 113 -25 0 8 -15
37 -32 63 -25 38 -48 56 -98 81 -70 35 -140 52 -140 35z"/>
<path d="M5374 4035 c-51 -25 -94 -75 -108 -122 -6 -19 -2 -23 29 -29 53 -10
134 0 178 21 45 21 69 63 65 113 l-3 37 -55 3 c-43 2 -66 -3 -106 -23z"/>
<path d="M5560 3989 c1 -76 29 -136 76 -155 56 -23 76 -16 98 38 39 94 -1 150
-117 164 l-57 7 0 -54z"/>
<path d="M1000 3990 c0 -36 28 -90 47 -91 10 -1 -1 -5 -24 -11 -43 -9 -93 -55
-93 -84 0 -33 139 -8 153 28 4 9 6 8 6 -3 2 -28 41 -69 67 -69 52 0 58 90 7
108 l-28 10 28 1 c58 2 96 37 97 90 0 23 -96 9 -125 -19 l-25 -23 0 26 c0 32
-33 57 -77 57 -27 0 -33 -4 -33 -20z"/>
<path d="M5840 3859 c0 -25 107 -120 170 -151 88 -42 166 -59 295 -63 84 -3
106 -2 75 4 -62 12 -284 101 -424 170 -94 47 -116 54 -116 40z"/>
<path d="M1569 3799 c-25 -4 -60 -14 -78 -23 l-31 -17 19 -37 c28 -55 89 -106
156 -131 65 -25 208 -40 218 -23 10 15 -18 86 -53 137 -53 77 -134 110 -231
94z"/>
<path d="M5187 3779 c31 -54 144 -158 201 -186 63 -31 144 -41 195 -24 35 12
35 13 25 44 -7 17 -32 52 -57 77 -77 76 -190 120 -314 120 l-68 0 18 -31z"/>
<path d="M4889 3706 c38 -55 73 -83 121 -97 44 -13 110 -4 110 15 0 21 -70 87
-114 107 -23 10 -64 19 -94 19 l-53 0 30 -44z"/>
<path d="M1115 3713 c-47 -10 -85 -25 -85 -33 0 -4 39 -37 88 -73 97 -73 221
-137 264 -137 26 0 28 3 28 38 0 130 -84 213 -215 211 -33 -1 -69 -3 -80 -6z"/>
<path d="M4520 3711 c0 -22 62 -80 103 -96 46 -19 197 -33 197 -19 -1 31 -66
65 -181 94 -46 11 -92 23 -101 26 -10 3 -18 1 -18 -5z"/>
<path d="M2139 3612 c20 -38 100 -101 135 -107 39 -8 86 0 86 14 0 20 -56 75
-95 92 -22 10 -62 19 -88 19 -43 0 -47 -2 -38 -18z"/>
<path d="M6030 3592 c-36 -18 -76 -74 -65 -92 8 -13 74 -13 114 1 36 13 51 35
51 78 0 28 -3 31 -32 31 -18 0 -49 -8 -68 -18z"/>
<path d="M5735 3513 c-40 -8 -95 -36 -95 -48 0 -24 59 -98 101 -127 61 -41
134 -59 222 -56 l74 3 -21 55 c-27 71 -106 154 -161 169 -40 11 -82 12 -120 4z"/>
<path d="M834 3486 c-3 -8 8 -40 24 -73 47 -92 65 -167 59 -237 l-5 -61 19 23
c62 77 44 213 -43 325 -32 39 -45 45 -54 23z"/>
<path d="M1990 3450 c0 -27 7 -47 20 -60 20 -20 20 -20 -8 -26 -15 -4 -36 -15
-48 -25 -20 -19 -21 -18 -71 30 -48 46 -144 91 -195 91 -16 0 -17 -3 -7 -22
20 -38 113 -125 159 -148 58 -30 135 -37 183 -17 20 9 37 21 37 27 0 6 5 8 10
5 6 -3 10 -14 10 -24 0 -44 70 -68 90 -32 27 52 -2 101 -61 101 -19 0 -40 4
-48 9 -7 5 16 6 57 3 66 -4 72 -3 96 21 14 15 26 38 26 52 0 22 -4 25 -39 25
-24 0 -51 -9 -75 -25 l-36 -24 0 29 c0 34 -23 50 -69 50 -29 0 -31 -2 -31 -40z"/>
<path d="M1090 3455 c0 -24 92 -108 156 -142 32 -17 86 -39 118 -48 67 -20
286 -37 300 -24 6 5 -6 9 -29 9 -45 0 -269 87 -427 166 -59 30 -110 54 -113
54 -3 0 -5 -7 -5 -15z"/>
<path d="M5253 3417 c-23 -7 -44 -15 -48 -18 -10 -11 144 -126 226 -169 41
-21 95 -42 119 -46 l43 -7 -7 54 c-10 76 -37 131 -82 165 -34 26 -46 29 -123
31 -47 1 -105 -3 -128 -10z"/>
<path d="M5074 3386 c-3 -8 8 -40 24 -73 48 -94 65 -167 58 -242 l-6 -66 20
30 c54 83 47 190 -20 293 -39 61 -67 82 -76 58z"/>
<path d="M1030 3272 c0 -16 71 -101 124 -150 67 -61 137 -92 211 -92 114 0
127 16 75 88 -40 56 -112 107 -185 132 -68 24 -225 39 -225 22z"/>
<path d="M1940 3170 c0 -22 65 -78 105 -90 22 -6 66 -14 98 -17 46 -5 57 -3
57 9 0 26 -36 49 -112 73 -102 32 -148 40 -148 25z"/>
<path d="M1695 3123 c-32 -9 -65 -34 -81 -64 -24 -48 -20 -52 52 -47 75 5 104
27 104 78 0 36 -22 46 -75 33z"/>
<path d="M1633 2839 c-43 -13 -80 -60 -88 -113 -20 -133 96 -214 223 -156 l42
19 0 61 0 60 -65 0 c-63 0 -65 -1 -65 -25 0 -21 5 -25 30 -25 23 0 30 -5 30
-19 0 -21 -19 -31 -60 -31 -65 0 -95 106 -45 155 29 30 66 32 90 5 18 -19 69
-28 78 -12 8 13 -12 51 -35 66 -31 20 -95 27 -135 15z"/>
<path d="M1842 2698 l3 -143 25 0 25 0 3 143 3 142 -31 0 -31 0 3 -142z"/>
<path d="M1972 2698 l3 -143 30 0 c30 0 30 1 33 58 l3 57 54 0 c54 0 55 0 55
30 0 30 -1 30 -55 30 -54 0 -55 0 -55 30 l0 30 105 0 104 0 3 -117 3 -118 30
0 30 0 3 118 3 117 39 0 c36 0 40 3 40 25 l0 25 -215 0 -216 0 3 -142z"/>
<path d="M2462 2698 l3 -143 105 0 105 0 3 28 3 27 -80 0 -81 0 0 35 0 35 70
0 c68 0 70 1 70 25 0 24 -2 25 -70 25 l-70 0 0 30 0 30 75 0 c73 0 75 1 75 25
l0 25 -105 0 -106 0 3 -142z"/>
<path d="M2690 2700 l0 -140 80 0 c94 0 124 11 145 55 19 42 19 127 0 165 -25
49 -51 60 -142 60 l-83 0 0 -140z m158 62 c6 -9 12 -38 12 -66 0 -61 -20 -86
-67 -86 l-33 0 0 90 0 91 38 -7 c20 -3 43 -13 50 -22z"/>
<path d="M4310 2810 c0 -28 2 -30 40 -30 l40 0 0 -115 0 -115 35 0 35 0 0 115
0 115 40 0 c38 0 40 2 40 30 l0 30 -115 0 -115 0 0 -30z"/>
<path d="M4673 2823 c-3 -10 -28 -74 -55 -142 -26 -68 -48 -126 -48 -128 0 -1
16 -3 36 -3 30 0 37 4 45 30 10 28 14 30 63 30 48 0 52 -2 63 -30 10 -26 16
-30 48 -30 26 0 36 4 32 13 -3 6 -29 72 -58 145 l-52 132 -34 0 c-23 0 -36 -6
-40 -17z"/>
<path d="M5110 2695 l0 -145 110 0 110 0 0 30 0 30 -80 0 -80 0 0 30 0 30 70
0 70 0 0 30 0 30 -70 0 c-68 0 -70 1 -70 25 0 24 2 25 75 25 l75 0 0 30 0 30
-105 0 -105 0 0 -145z"/>
<path d="M5340 2695 l0 -145 30 0 29 0 3 82 3 82 50 -82 c46 -76 52 -82 82
-82 l33 0 0 145 0 145 -30 0 -30 0 0 -87 0 -88 -52 87 c-49 81 -55 88 -85 88
l-33 0 0 -145z"/>
<path d="M5620 2810 c0 -28 2 -30 40 -30 l40 0 0 -115 0 -115 35 0 35 0 0 115
0 115 40 0 c38 0 40 2 40 30 l0 30 -115 0 -115 0 0 -30z"/>
<path d="M5910 2695 l0 -145 110 0 110 0 0 30 0 30 -80 0 -80 0 0 30 0 30 70
0 70 0 0 30 0 30 -70 0 c-68 0 -70 1 -70 25 0 24 2 25 75 25 l75 0 0 30 0 30
-105 0 -105 0 0 -145z"/>
<path d="M6140 2696 l0 -146 78 0 c42 0 88 6 102 13 53 26 76 129 46 200 -23
56 -45 67 -140 74 l-86 6 0 -147z m150 64 c14 -14 20 -33 20 -66 0 -68 -12
-84 -65 -84 l-45 0 0 85 0 85 35 0 c22 0 43 -8 55 -20z"/>
<path d="M4890 2690 l0 -140 100 0 100 0 0 30 0 30 -70 0 -70 0 0 110 0 110
-30 0 -30 0 0 -140z"/>
</g>
</svg>
